<?xml version="1.0" encoding="iso-8859-1"?>
<!-- Generator: Adobe Illustrator 19.0.0, SVG Export Plug-In . SVG Version: 6.00 Build 0)  -->
<svg version="1.1" id="Layer_1" xmlns="http://www.w3.org/2000/svg" xmlns:xlink="http://www.w3.org/1999/xlink" x="0px" y="0px"
	 viewBox="0 0 512 512" style="enable-background:new 0 0 512 512;" xml:space="preserve">
<circle style="fill:#C1321F;" cx="256" cy="256" r="256"/>
<path style="fill:#A82116;" d="M504.489,317.731l-83.142-82.784l-3.487,10.992L313.553,141.633l-43.332,26.452l-21.061-21.061
	l-9.406,12.021l-33.459,44.646l65.662,66.779l-30.808,9.754l-45.485-45.484H99.211L91.907,335.12l175.604,176.611
	C382.495,506.64,477.751,425.708,504.489,317.731z"/>
<path style="fill:#F4E3C3;" d="M186.623,167.707c0-19.156,15.531-34.685,34.688-34.685S256,148.551,256,167.707
	c0-19.156,15.531-34.685,34.688-34.685c19.158,0,34.688,15.529,34.688,34.685c0,33.168-69.377,72.84-69.377,72.84
	S186.623,202.742,186.623,167.707z"/>
<path style="fill:#FED8B2;" d="M325.377,167.707c0-19.156-15.531-34.685-34.688-34.685c-19.154,0-34.682,15.524-34.688,34.675
	v72.851C256.022,240.533,325.377,200.868,325.377,167.707z"/>
<path style="fill:#FFD15D;" d="M369.778,212.902c-29.83,0-89.393,37.574-113.778,53.839
	c-24.385-16.265-83.947-53.839-113.778-53.839c-39.448,0-71.542,32.094-71.542,71.542s32.094,71.542,71.542,71.542
	c29.83,0,89.393-37.574,113.778-53.839c24.385,16.265,83.947,53.839,113.778,53.839c39.448,0,71.542-32.094,71.542-71.542
	S409.226,212.902,369.778,212.902z M142.222,326.68c-23.29,0-42.236-18.946-42.236-42.236c0-23.29,18.946-42.236,42.236-42.236
	c15.362,0,55.424,21.9,87.266,42.237C197.654,304.783,157.603,326.68,142.222,326.68z M369.778,326.68
	c-15.362,0-55.424-21.9-87.266-42.237c31.834-20.337,71.885-42.234,87.266-42.234c23.29,0,42.236,18.946,42.236,42.236
	C412.013,307.734,393.068,326.68,369.778,326.68z"/>
<path style="fill:#F9B54C;" d="M369.778,212.902c-29.83,0-89.391,37.574-113.778,53.839v35.406
	c24.386,16.265,83.947,53.839,113.778,53.839c39.448,0,71.542-32.094,71.542-71.542S409.226,212.902,369.778,212.902z
	 M369.778,326.68c-15.362,0-55.424-21.9-87.266-42.237c31.834-20.337,71.885-42.234,87.266-42.234
	c23.29,0,42.236,18.946,42.236,42.236C412.013,307.734,393.068,326.68,369.778,326.68z"/>
<g>
</g>
<g>
</g>
<g>
</g>
<g>
</g>
<g>
</g>
<g>
</g>
<g>
</g>
<g>
</g>
<g>
</g>
<g>
</g>
<g>
</g>
<g>
</g>
<g>
</g>
<g>
</g>
<g>
</g>
</svg>
